<svg xmlns="http://www.w3.org/2000/svg" width="1080" height="1080"><path fill="#222e27" d="m815 178 1.952 1.488c17.77 13.594 34.199 28.611 50.048 44.387l2.103 2.089c4.502 4.516 8.74 9.202 12.897 14.036a2078 2078 0 0 0 2.781 3.141c8.657 9.852 16.474 20.282 24.219 30.859l1.594 2.151c55.307 74.787 84.224 168.983 79.853 332.008C978.955 683.142 949.153 754.713 903 815l-1.488 1.952c-13.594 17.77-28.611 34.199-44.387 50.048l-2.089 2.103c-4.516 4.502-9.202 8.74-14.036 12.897a2078 2078 0 0 0-3.141 2.781C828.007 893.438 817.577 901.255 807 909l-2.151 1.594c-74.787 55.307-168.983 84.224-332.008 79.853C397.858 978.955 326.287 949.153 266 903l-1.952-1.488c-17.77-13.594-34.199-28.611-50.048-44.387l-2.103-2.089c-4.502-4.516-8.74-9.202-12.897-14.036a2078 2078 0 0 0-2.781-3.141C187.562 828.007 179.745 817.577 172 807l-1.594-2.151c-55.307-74.787-84.224-168.983-79.853-332.008C102.045 397.858 131.847 326.287 178 266l1.488-1.952c13.594-17.77 28.611-34.199 44.387-50.048l2.089-2.103c4.516-4.502 9.202-8.74 14.036-12.897a2078 2078 0 0 0 3.141-2.781c9.852-8.657 20.282-16.474 30.859-24.219l2.151-1.594C350.938 115.099 445.134 86.182 815 178M477.25 450.812c-8.239 9.83-10.159 19.635-9.25 32.188 2.073 10.801 9.005 18.419 17.812 24.625 3.249 2.142 4.079 2.375 8.188 2.375v2l-3.938.062c-16.774 1.74-30.012 11.776-40.906 24.008-10.482 13.004-14.448 28.544-12.73 45.075C438.15 592.719 442.031 606.05 451 614q1.972 2.34 3.938 4.688c5.152 5.762 11.029 9.993 17.438 14.234 1.386.92 2.752 1.871 4.112 2.828 7.764 5.149 16.626 7.724 25.512 10.25l3.664 1.043c25.642 5.95 55.133 3.324 78.266-9.691 4.251-2.716 4.251-2.716 6.07-4.352v-2l1.699-.227C600.216 627.91 607.158 616.694 611 609c5.475-14.572 7.151-29.014 2-44-3.399-6.973-8.983-13.152-15-18h-3v-2h-3v-2l3.5-.312c4.458-.574 8.363-1.981 12.5-3.688l3.699-1.461c11.574-4.572 11.574-4.572 15.301-6.539v-2l1.781-.281c4.888-1.584 8.094-6.717 10.524-11.039 4.184-9.01 5.493-19.322 2.257-28.868-2.823-6.323-7.901-11.004-14.078-14.054-2.599-.793-4.143-.833-6.796-.383L617 475v2l-1.875.75c-2.498 1.47-3.192 2.536-4.125 5.25l1 2 2.125-1c4.433-1.542 8.412-1.373 12.875 0v2l2 1c.861 9.677.861 9.677-2.312 13.562C624 503 624 503 621 504v2h-3v2c-8.291 2.835-16.673 5.351-25.062 7.875C550.947 528.52 550.947 528.52 535 537v2l-1.727.781c-9.546 5.118-15.636 14.001-19.148 24.031-2.447 9.278-2.153 19.411 1.875 28.188 5.074 8.281 11.66 14.887 21 18 9.475.753 18.131 1.085 26-5 5.679-5.304 9.682-9.995 10.312-17.938-.141-5.023-2.141-8.35-4.937-12.437-3.61-2.47-7.13-1.952-11.375-1.625 0 4 0 4 2.438 6.625L562 582c1.444 2.889 1.377 4.796 1 8-2.32 3.071-4.074 4.656-7.688 6-4.747 0-8.86-1.443-13.312-3v-3l-2-1c-1.953-5.859-2.149-12.848-.023-18.68 1.22-2.224 2.538-4.265 4.023-6.32l1.75-2.75c3.313-3.313 7.057-5.22 11.25-7.25l2.352-1.168c6.618-2.986 13.37-4.507 20.648-3.832 9.302 3.693 14.764 11.95 19.02 20.57 3.845 9.53 2.438 20.709-.02 30.43h-2l-.559 1.836C592.417 613.461 583.549 621.932 573 628c-4.544 2.022-9.243 3.556-14 5v2c-12.883 1.662-26.11 1.59-39 0v-2l-2.527-.883c-15.525-5.655-25.535-13.823-33.379-28.574-1.086-2.525-1.666-4.835-2.094-7.543h-2q-.149-8.242-.22-16.486-.03-2.798-.082-5.594c-.356-19.57-.356-19.57 4.302-28.92l1.75-4.125c5.383-10.182 14.161-17.063 25-20.687 9.122-2.251 18.901-1.964 28.25-2.188q.04-2.469.062-4.938l.036-2.777C539 508 539 508 538 507a184 184 0 0 0-5.938-.375c-9.683-.73-17-2.257-24.144-9.211-6.687-8.416-6.825-19.124-5.918-29.414 1.29-8.432 5.318-15.104 11.883-20.566 10.012-6.79 20.64-7.499 32.242-5.434q2.441.484 4.875 1v2c1.574.973 1.574.973 3.688 2.062 5.414 3.226 8.113 7.996 9.925 13.954 1.34 6.877.577 13.718-2.613 19.984-3.879 3.785-6.535 5.148-11.875 5.188l-2.617.042c-2.669-.245-4.26-.794-6.508-2.23l-1-2h-2c1.875-5.875 1.875-5.875 3-7l3.312-.312C548 474 548 474 550.5 472.312 552 470 552 470 552 466.938c-1-2.938-1-2.938-2.562-4.813-4.164-1.922-8.142-1.931-12.407-.434-2.99 1.515-4.956 3.209-6.969 5.871-1.856 6.008-2.435 12.58.563 18.313 5.715 7.52 11.068 9.795 20.375 11.125 9.284.557 17.874-2.681 24.984-8.672 6.011-6.487 7.637-13.543 7.352-22.246-1.224-11.226-6.945-18.887-15.57-25.898-26.846-18.992-68.505-12.897-90.516 10.628"/><path fill="#b4532a" d="M854 175l2.211 1.91A736 736 0 0 1 862 182l2.114 1.857c6.54 5.803 12.769 11.872 18.937 18.064a2085 2085 0 0 0 4.935 4.929c5.548 5.544 10.949 11.156 16.014 17.15l2.562 2.922c8.317 9.649 15.891 19.822 23.438 30.078l1.418 1.91c58.412 78.744 89.899 177.77 85.64 353.835C1003.874 701.377 965.024 786.515 906 854l-1.91 2.211A736 736 0 0 1 899 862l-1.857 2.114c-5.803 6.54-11.872 12.769-18.064 18.937a2085 2085 0 0 0-4.929 4.935c-5.544 5.548-11.156 10.949-17.15 16.014l-2.922 2.562C844.429 914.879 834.256 922.453 824 930l-1.91 1.418c-78.744 58.412-177.77 89.899-353.835 85.64C379.623 1003.874 294.485 965.024 227 906l-2.211-1.91A736 736 0 0 1 219 899l-2.114-1.857c-6.54-5.803-12.769-11.872-18.937-18.064a2085 2085 0 0 0-4.935-4.929c-5.548-5.544-10.949-11.156-16.014-17.15l-2.562-2.922C166.121 844.429 158.547 834.256 151 824l-1.418-1.91c-58.412-78.744-89.899-177.77-85.64-353.835C77.126 379.623 115.976 294.485 175 227l1.91-2.211A736 736 0 0 1 182 219l1.857-2.114c5.803-6.54 11.872-12.769 18.064-18.937a2085 2085 0 0 0 4.929-4.935c5.544-5.548 11.156-10.949 17.15-16.014l2.922-2.562c9.649-8.317 19.822-15.891 30.078-23.438l1.91-1.418C337.654 91.17 436.68 59.683 854 175m-588 3-1.952 1.488c-17.77 13.594-34.199 28.611-50.048 44.387l-2.103 2.089c-4.502 4.516-8.74 9.202-12.897 14.036a2078 2078 0 0 1-2.781 3.141C187.562 252.993 179.745 263.423 172 274l-1.594 2.151c-55.307 74.787-84.224 168.983-79.853 332.008C102.045 683.142 131.847 754.713 178 815l1.488 1.952c13.594 17.77 28.611 34.199 44.387 50.048l2.089 2.103c4.516 4.502 9.202 8.74 14.036 12.897q1.572 1.389 3.141 2.781c9.852 8.657 20.282 16.474 30.859 24.219l2.151 1.594c74.787 55.307 168.983 84.224 332.008 79.853C683.142 978.955 754.713 949.153 815 903l1.952-1.488c17.77-13.594 34.199-28.611 50.048-44.387l2.103-2.089c4.502-4.516 8.74-9.202 12.897-14.036a2078 2078 0 0 1 2.781-3.141c8.657-9.852 16.474-20.282 24.219-30.859l1.594-2.151c55.307-74.787 84.224-168.983 79.853-332.008C978.955 397.858 949.153 326.287 903 266l-1.488-1.952c-13.594-17.77-28.611-34.199-44.387-50.048l-2.089-2.103c-4.516-4.502-9.202-8.74-14.036-12.897a2078 2078 0 0 1-3.141-2.781C828.007 187.562 817.577 179.745 807 172l-2.151-1.594C730.062 115.099 635.866 86.182 266 178"/><path fill="#f7f4ef" d="M566 439c9.207 7.388 15.973 14.827 17.324 26.895.295 7.916-.8 14.96-6.054 21.14-6.699 6.297-14.196 9.544-23.368 10.059-7.754-.251-14.965-1.907-20.566-7.508-4.227-5.018-4.884-9.493-4.684-15.895.545-4.22 1.693-6.337 4.348-9.691 4.674-3.293 8.469-3.702 14-3 3.062 2.188 3.062 2.188 5 5 0 2.897-.574 4.338-2.125 6.75-2.764 1.843-5.62 1.836-8.875 2.25-2.36 2.36-2.491 3.779-3 7h2q1.531 1.47 3 3c3.712 1.856 7.948 1.448 12 1 4.468-2.193 6.909-4.487 9-9 2.305-7.544 1.335-14.656-1.797-21.77-2.23-4.133-5.039-6.532-9.015-8.918L551 445v-2c-12.627-2.689-23.572-3.343-35.188 3.125-6.736 4.568-11.413 11.121-13.374 19.016-1.554 10.153-1.439 20.666 3.562 29.859 5.08 6.394 11.002 9.703 19 11 3.471.354 6.925.618 10.41.789C538 507 538 507 539 508a91 91 0 0 1 .062 5.062l-.027 2.786L539 518l-1.813.028c-16.553.325-31.284.946-44.082 12.714-6.611 6.943-10.988 15.942-13.105 25.258h-2c-.059 4.417-.094 8.833-.125 13.25l-.051 3.742c-.041 7.883.588 15.284 2.176 23.008h2l.625 2.875c3.511 12.034 12.891 22.874 23.734 28.875 4.428 2.096 8.983 3.745 13.641 5.25v2c12.89 1.59 26.117 1.662 39 0v-2l3.148-1.031c8.899-3.04 16.015-6.291 22.852-12.969l2.242-2.16c4.899-5.087 7.628-10.127 9.758-16.84h2c2.719-10.755 3.702-21.701-1-32l-.996-2.27c-3.457-7.022-9.481-13.951-17.004-16.73-11.465-.629-23.347 2.966-32.281 10.254-5.918 6.011-8.863 11.825-8.844 20.246l-.008 3.469C539 586 539 586 540 589l2 1v3c11.802 3.97 11.802 3.97 18 1 2.577-2.328 2.952-3.537 3.312-7-.476-4.571-1.429-6.243-4.937-9.25L556 576l1-3c3.104-.435 5.909-.584 9 0 3.532 2.704 5.603 5.809 7 10 .624 7.361-.941 12.109-5.508 17.918-5.846 6.376-11.694 9.169-20.378 9.552-8.616.122-15.167-1.074-21.802-6.782L523 601l-1.527-1.629c-7.269-7.944-8.866-16.297-8.746-26.894 1.062-13.512 8.426-23.431 18.355-32.079C533 539 533 539 535 539v-2c14.951-7.29 29.734-13.221 45.769-17.671 7.682-2.137 15.274-4.517 22.86-6.969 4.77-1.541 9.542-3.018 14.371-4.36v-2h3v-2l2.312-1.375c2.816-1.703 4.005-2.836 5.688-5.625.293-2.578.293-2.578.188-5.25l-.083-2.703L629 487l-2-1v-2c-10.558-1.517-10.558-1.517-15 1l-1-3c1.812-2.688 1.812-2.688 4-5h2v-2c5.821-1.104 8.882-1.412 14 2 6.479 4.55 10.201 9.201 12 17 1.263 11.485-1.374 20.632-8 30-1.59 1.981-3.008 3.385-5 5h-3v2c-16.129 7.304-16.129 7.304-24.02 9.445-1.98.555-1.98.555-4.855 1.743C596 543 596 543 592 543v2h3v2l1.691.223c6.628 2.231 12.131 9.791 15.309 15.777 6.316 14.35 4.878 29.486 0 44-3.479 7.815-9.111 13.897-15 20l-2.086 2.289C593 631 593 631 590 631l-1 3c-6.317 4.876-13.566 7.797-21.062 10.312l-2.178.734c-10.672 3.404-21.023 4.345-32.198 4.329l-1.989-.003c-21.04-.092-43.559-4.106-60.573-17.372l-3.105-2.246c-7.17-5.243-13.243-10.849-18.895-17.754l-2.055-2.398c-9.018-12.061-12.222-29.486-10.535-44.172 3.499-19.066 13.104-33.093 28.852-44.272 7.99-5.324 19-9.927 28.738-9.158v-2l-2.5-.125c-8.215-2.054-14.699-9.161-19.5-15.875-4.684-8.526-5.649-18.367-3.305-27.797 5.058-13.686 15.218-23.93 28.305-30.203 4.277-1.584 8.582-2.874 13-4l1.995-.54c17.435-4.375 39.062-3.161 54.005 7.54"/><path fill="#4a544d" d="M478 556h1c.793 3.496 1.128 6.727 1.133 10.309l.004 3.013-.012 3.116.012 3.103c-.007 4.928-.091 9.617-1.137 14.459h-1c-1.262-5.841-1.147-11.62-1.125-17.562l-.012-3.116.004-3.013.004-2.725c.131-2.617.55-5.032 1.129-7.584"/></svg>